<?xml version="1.0" standalone="no"?><!DOCTYPE svg PUBLIC "-//W3C//DTD SVG 1.1//EN" "http://www.w3.org/Graphics/SVG/1.1/DTD/svg11.dtd"><svg t="1571973242813" class="icon" viewBox="0 0 1024 1024" version="1.1" xmlns="http://www.w3.org/2000/svg" p-id="4447" xmlns:xlink="http://www.w3.org/1999/xlink" width="200" height="200"><defs><style type="text/css"></style></defs><path d="M423.66333333 582.73c0-33.09 27.21-60 60.65-60h98.71c33.44 0 60.64 26.91 60.64 60s-27.2 60-60.64 60H484.33333333c-33.46 0-60.67-26.92-60.67-60z" fill="#6633FF" p-id="4448"></path><path d="M382.06333333 971.66a65.08 65.08 0 0 1-65-65V858.6a65 65 0 1 1 130 0v48.06a65.08 65.08 0 0 1-65 65zM674.56333333 971.08a65.08 65.08 0 0 1-65-65V858a65 65 0 0 1 130 0v48.06a65.08 65.08 0 0 1-65 65.02z" fill="#FF2D51" p-id="4449"></path><path d="M665.69333333 875.86H354.23333333a205.75 205.75 0 0 1-90.79-21.05 225.67 225.67 0 0 1-71.72-55.48c-40.8-47-63.27-108.84-63.27-174.26v-84.68c0-65.42 22.47-127.31 63.27-174.26a225.84 225.84 0 0 1 71.72-55.49 205.87 205.87 0 0 1 90.79-21h358.87a205.91 205.91 0 0 1 90.79 21 225.84 225.84 0 0 1 71.72 55.49c40.8 46.95 63.27 108.84 63.27 174.26 0 62.79-31.5 142.32-84.24 212.72-25.15 33.57-53.39 62.21-81.67 82.82-36.34 26.49-72.44 39.93-107.28 39.93zM354.23333333 409.6c-58.33 0-105.78 58.67-105.78 130.79v84.68c0 72.11 47.45 130.79 105.78 130.79h311.46c14.29 0 52.14-20.28 92.91-74.7 36.05-48.12 60.28-104.69 60.28-140.77 0-72.12-47.46-130.79-105.78-130.79z" fill="#FF2D51" p-id="4450"></path><path d="M128.45333333 76.48m60 0l0 0q60 0 60 60l0 416.39q0 60-60 60l0 0q-60 0-60-60l0-416.39q0-60 60-60Z" fill="#FF2D51" p-id="4451"></path></svg>