<?xml version="1.0" standalone="no"?><!DOCTYPE svg PUBLIC "-//W3C//DTD SVG 1.1//EN" "http://www.w3.org/Graphics/SVG/1.1/DTD/svg11.dtd"><svg t="1571989598158" class="icon" viewBox="0 0 1024 1024" version="1.1" xmlns="http://www.w3.org/2000/svg" p-id="9470" xmlns:xlink="http://www.w3.org/1999/xlink" width="200" height="200"><defs><style type="text/css"></style></defs><path d="M432 582.73c0-33.09 27.21-60 60.65-60h98.7c33.44 0 60.65 26.91 60.65 60s-27.21 60-60.65 60h-98.7c-33.44 0-60.65-26.92-60.65-60z" fill="#FF2D51" p-id="9471"></path><path d="M390.4 971.66a65.08 65.08 0 0 1-65-65V858.6a65 65 0 0 1 130 0v48.06a65.08 65.08 0 0 1-65 65zM682.89 971.08a65.08 65.08 0 0 1-65-65V858a65 65 0 0 1 130 0v48.06a65.07 65.07 0 0 1-65 65.02z" fill="#BCBCBC" p-id="9472"></path><path d="M674 875.86H362.57a205.72 205.72 0 0 1-90.79-21.05 225.7 225.7 0 0 1-71.73-55.48c-40.79-47-63.26-108.84-63.26-174.26v-84.68c0-65.42 22.47-127.31 63.26-174.26a225.88 225.88 0 0 1 71.73-55.49 205.84 205.84 0 0 1 90.79-21h358.86a205.84 205.84 0 0 1 90.79 21A225.88 225.88 0 0 1 884 366.13c40.79 46.95 63.26 108.84 63.26 174.26 0 62.79-31.49 142.32-84.24 212.72-25.15 33.57-53.39 62.21-81.66 82.82C745 862.42 708.87 875.86 674 875.86zM362.57 409.6c-58.33 0-105.78 58.67-105.78 130.79v84.68c0 72.11 47.45 130.79 105.78 130.79H674c14.28 0 52.14-20.28 92.91-74.7 36-48.12 60.27-104.69 60.27-140.77 0-72.12-47.45-130.79-105.78-130.79z" fill="#BCBCBC" p-id="9473"></path><path d="M136.79 76.48m60 0l0 0q60 0 60 60l0 416.39q0 60-60 60l0 0q-60 0-60-60l0-416.39q0-60 60-60Z" fill="#BCBCBC" p-id="9474"></path></svg>