<?xml version="1.0" standalone="no"?><!DOCTYPE svg PUBLIC "-//W3C//DTD SVG 1.1//EN" "http://www.w3.org/Graphics/SVG/1.1/DTD/svg11.dtd"><svg t="1571989613201" class="icon" viewBox="0 0 1024 1024" version="1.1" xmlns="http://www.w3.org/2000/svg" p-id="9821" xmlns:xlink="http://www.w3.org/1999/xlink" width="200" height="200"><defs><style type="text/css"></style></defs><path d="M754 185.37c33.09 0 60 29.31 60 65.34V340c0 36-26.91 65.34-60 65.34s-60-29.28-60-65.34v-89.29c0-36.03 26.89-65.34 60-65.34z" fill="#FF2D51" p-id="9822"></path><path d="M791.72 476.37a210.74 210.74 0 0 0-97.61-23.63h-55a66.53 66.53 0 0 1-66.52-66.53v-49.62a233.48 233.48 0 0 0-68.85-166.2c-60.74-60.83-149.1-84.22-236.9-58.55a191.36 191.36 0 0 0-38.14 15.79c-80.24 43.94-126.15 122.92-126.15 209a233.49 233.49 0 0 0 68.84 166.2q4.86 4.86 10 9.39c-3.4 3-6.73 6.15-10 9.4A235 235 0 0 0 503.78 854q4.5-4.5 8.72-9.19 4.21 4.68 8.71 9.19a235 235 0 0 0 401.24-166.2c0-87.68-47.67-168.02-130.73-211.43zM413.5 246.53a90 90 0 0 1 39.13 74.4v124.46a6.24 6.24 0 0 1-6.24 6.24H321.93a90 90 0 0 1-74.4-39.13c-80.21-117.75 48.22-246.18 165.97-165.97z m-75.91 556.28c-87.92 0-153.11-99.12-89.7-191.47a89.63 89.63 0 0 1 74-38.6h124.24a6.24 6.24 0 0 1 6.24 6.23v108.81c0 2.09 0 4.19 0.08 6.28a115.17 115.17 0 0 1-114.86 108.75z m412.54-16.88c-86 47.24-173.24-11.47-177.59-91.87 0.05-2.09 0.09-4.19 0.09-6.28V579a6.23 6.23 0 0 1 6.23-6.23h108.55c83.48 0 146.48 89.38 98.31 177.48a89.91 89.91 0 0 1-35.59 35.68z" fill="#BCBCBC" p-id="9823"></path></svg>