<?xml version="1.0" standalone="no"?><!DOCTYPE svg PUBLIC "-//W3C//DTD SVG 1.1//EN" "http://www.w3.org/Graphics/SVG/1.1/DTD/svg11.dtd"><svg t="1560245789244" class="icon" style="" viewBox="0 0 1024 1024" version="1.1" xmlns="http://www.w3.org/2000/svg" p-id="3111" xmlns:xlink="http://www.w3.org/1999/xlink" width="200" height="200"><defs><style type="text/css"></style></defs><path d="M512.67 679.49a65.08 65.08 0 0 1-65-65v-72.93a65 65 0 0 1 130 0v72.93a65.08 65.08 0 0 1-65 65z" fill="#6633FF" p-id="3112"></path><path d="M79.38 622.1a60 60 0 0 1-2.91-84.8l390.84-410.78a60 60 0 0 1 84.8-2.91 60 60 0 0 1 2.89 84.81L164.18 619.19a60 60 0 0 1-84.8 2.91z" fill="#FF2D51" p-id="3113"></path><path d="M943.73 621.88a60 60 0 0 0 2.91-84.81L555.8 126.3a60 60 0 0 0-84.8-2.91 60 60 0 0 0-2.91 84.81L858.93 619a60 60 0 0 0 84.8 2.88z" fill="#FF2D51" p-id="3114"></path><path d="M60.33 518.24m60 0l148.52 0q60 0 60 60l0 0q0 60-60 60l-148.52 0q-60 0-60-60l0 0q0-60 60-60Z" fill="#FF2D51" p-id="3115"></path><path d="M694.26 518.02m60 0l148.52 0q60 0 60 60l0 0q0 60-60 60l-148.52 0q-60 0-60-60l0 0q0-60 60-60Z" fill="#FF2D51" p-id="3116"></path><path d="M643.52 916.75H381.74a172.89 172.89 0 0 1-172.89-172.89V578.24a60 60 0 0 1 60-60 60 60 0 0 1 60 60v165.62a52.89 52.89 0 0 0 52.89 52.89h261.78a52.89 52.89 0 0 0 52.89-52.89V578.24a60 60 0 0 1 60-60 60 60 0 0 1 60 60v165.62a172.88 172.88 0 0 1-172.89 172.89z" fill="#FF2D51" p-id="3117"></path></svg>