<?xml version="1.0" standalone="no"?><!DOCTYPE svg PUBLIC "-//W3C//DTD SVG 1.1//EN" "http://www.w3.org/Graphics/SVG/1.1/DTD/svg11.dtd"><svg t="1565336759464" class="icon" viewBox="0 0 1024 1024" version="1.1" xmlns="http://www.w3.org/2000/svg" p-id="4978" xmlns:xlink="http://www.w3.org/1999/xlink" width="200" height="200"><defs><style type="text/css"></style></defs><path d="M644.46 936a62.82 62.82 0 0 1-45.41-19.53l-58.4-61.62H419a357.42 357.42 0 0 1-357.7-357.7v-51.44A357.44 357.44 0 0 1 419 88h186a357.42 357.42 0 0 1 357.7 357.7v51.43A357.57 357.57 0 0 1 808.39 791.4L689.87 916.46A62.82 62.82 0 0 1 644.46 936zM419 158c-158.64 0-287.7 129.06-287.7 287.7v51.43c0 158.64 129.06 287.7 287.7 287.7h151.75l73.71 77.78 118.31-124.84 3.17-2.14a287.66 287.66 0 0 0 126.73-238.49v-51.43C892.67 287.07 763.61 158 605 158z" p-id="4979" fill="#d81e06"></path><path d="M294.37 470.46m-70 0a70 70 0 1 0 140 0 70 70 0 1 0-140 0Z" p-id="4980" fill="#d81e06"></path><path d="M515.44 470.46m-70 0a70 70 0 1 0 140 0 70 70 0 1 0-140 0Z" p-id="4981" fill="#d81e06"></path><path d="M736.52 470.46m-70 0a70 70 0 1 0 140 0 70 70 0 1 0-140 0Z" p-id="4982" fill="#d81e06"></path></svg>