<?xml version="1.0" standalone="no"?><!DOCTYPE svg PUBLIC "-//W3C//DTD SVG 1.1//EN" "http://www.w3.org/Graphics/SVG/1.1/DTD/svg11.dtd"><svg t="1565336688096" class="icon" viewBox="0 0 1024 1024" version="1.1" xmlns="http://www.w3.org/2000/svg" p-id="4814" xmlns:xlink="http://www.w3.org/1999/xlink" width="200" height="200"><defs><style type="text/css"></style></defs><path d="M635.7 808.06H423.3a281 281 0 0 1-281-281v-67.83c0-80.59 65.56-146.15 146.15-146.15h482c80.59 0 146.15 65.56 146.15 146.15v67.87a281 281 0 0 1-280.95 281z m-347.2-425a76.24 76.24 0 0 0-76.15 76.15v67.89c0 116.32 94.63 211 211 211H635.7c116.32 0 210.95-94.64 210.95-211v-67.87a76.24 76.24 0 0 0-76.15-76.15z" p-id="4815" fill="#d81e06"></path><path d="M142.35 70.29m35 0l0 0q35 0 35 35l0 343.9q0 35-35 35l0 0q-35 0-35-35l0-343.9q0-35 35-35Z" p-id="4816" fill="#d81e06"></path><path d="M706.14 906.39m-47.32 0a47.32 47.32 0 1 0 94.64 0 47.32 47.32 0 1 0-94.64 0Z" p-id="4817" fill="#d81e06"></path><path d="M369.38 906.39m-47.32 0a47.32 47.32 0 1 0 94.64 0 47.32 47.32 0 1 0-94.64 0Z" p-id="4818" fill="#d81e06"></path><path d="M399.98 523.18m35 0l395.75 0q35 0 35 35l0 0q0 35-35 35l-395.75 0q-35 0-35-35l0 0q0-35 35-35Z" p-id="4819" fill="#d81e06"></path></svg>