<?xml version="1.0" standalone="no"?><!DOCTYPE svg PUBLIC "-//W3C//DTD SVG 1.1//EN" "http://www.w3.org/Graphics/SVG/1.1/DTD/svg11.dtd"><svg t="1571989390439" class="icon" viewBox="0 0 1024 1024" version="1.1" xmlns="http://www.w3.org/2000/svg" p-id="4564" xmlns:xlink="http://www.w3.org/1999/xlink" width="200" height="200"><defs><style type="text/css"></style></defs><path d="M402.67 714c0-33.08 29.31-60 65.34-60h89.31c36 0 65.35 26.92 65.35 60s-29.32 60-65.35 60H468c-36 0-65.33-26.92-65.33-60z" fill="#6633FF" p-id="4565"></path><path d="M512.67 532.6a228.89 228.89 0 1 1 161.86-67 227.44 227.44 0 0 1-161.86 67z m0-337.81a108.91 108.91 0 1 0 108.9 108.9 109 109 0 0 0-108.9-108.9z" fill="#FF2D51" p-id="4566"></path><path d="M668.54 964H356.79a250 250 0 1 1 0-500h311.75a250 250 0 1 1 0 500zM356.79 584c-71.68 0-130 58.32-130 130s58.32 130 130 130h311.75a130 130 0 0 0 0-260z" fill="#FF2D51" p-id="4567"></path></svg>