<?xml version="1.0" standalone="no"?><!DOCTYPE svg PUBLIC "-//W3C//DTD SVG 1.1//EN" "http://www.w3.org/Graphics/SVG/1.1/DTD/svg11.dtd"><svg t="1571989493043" class="icon" viewBox="0 0 1024 1024" version="1.1" xmlns="http://www.w3.org/2000/svg" p-id="8775" xmlns:xlink="http://www.w3.org/1999/xlink" width="200" height="200"><defs><style type="text/css"></style></defs><path d="M753.3 185.37c33.09 0 60 29.31 60 65.34V340c0 36-26.92 65.34-60 65.34s-60-29.31-60-65.34v-89.29c0.01-36.03 26.92-65.34 60-65.34z" fill="#6633FF" p-id="8776"></path><path d="M791.05 476.37a210.71 210.71 0 0 0-97.61-23.63h-55A66.53 66.53 0 0 1 572 386.21v-49.62a233.51 233.51 0 0 0-68.84-166.2C442.28 109.56 354 86.17 266.18 111.84A191.2 191.2 0 0 0 228 127.63c-80.24 43.94-126.15 122.92-126.15 209a233.53 233.53 0 0 0 68.84 166.2c3.24 3.24 6.58 6.36 10 9.39-3.39 3-6.73 6.15-10 9.4A235 235 0 0 0 503.12 854c3-3 5.89-6.07 8.71-9.19q4.21 4.68 8.71 9.19a235 235 0 0 0 401.24-166.2c0-87.68-47.66-168.02-130.73-211.43zM412.83 246.53a90 90 0 0 1 39.17 74.4v124.46a6.24 6.24 0 0 1-6.24 6.24h-124.5a89.93 89.93 0 0 1-74.39-39.13c-80.22-117.75 48.21-246.18 165.96-165.97z m-75.91 556.28c-87.91 0-153.11-99.12-89.7-191.47a89.63 89.63 0 0 1 74-38.6h124.25a6.23 6.23 0 0 1 6.23 6.26v108.78c0 2.09 0 4.19 0.09 6.28a115.18 115.18 0 0 1-114.87 108.75z m412.55-16.88c-86 47.24-173.25-11.47-177.6-91.87 0.06-2.09 0.09-4.19 0.09-6.28V579a6.23 6.23 0 0 1 6.23-6.23h108.55c83.48 0 146.48 89.38 98.31 177.48a90 90 0 0 1-35.58 35.68z" fill="#FF2D51" p-id="8777"></path></svg>