<?xml version="1.0" standalone="no"?><!DOCTYPE svg PUBLIC "-//W3C//DTD SVG 1.1//EN" "http://www.w3.org/Graphics/SVG/1.1/DTD/svg11.dtd"><svg t="1560326374901" class="icon" style="" viewBox="0 0 1024 1024" version="1.1" xmlns="http://www.w3.org/2000/svg" p-id="3044" xmlns:xlink="http://www.w3.org/1999/xlink" width="200" height="200"><defs><style type="text/css"></style></defs><path d="M729.71 914.33H293.19c-63.75 0-115.62-51.87-115.62-115.62V581.04c0-2.36-1.51-4.49-3.75-5.3-38.37-13.77-66.69-47.87-73.9-88.97-7.18-40.92 7.8-81.32 40.08-108.07l297.98-246.96c42.58-35.29 104.39-35.29 146.98 0L882.92 378.7c32.27 26.75 47.26 67.15 40.08 108.07-7.21 41.1-35.53 75.2-73.91 88.97-2.25 0.81-3.75 2.93-3.75 5.3v217.67c-0.01 63.75-51.88 115.62-115.63 115.62zM511.45 175.26c-10.24 0-20.47 3.46-28.82 10.38L184.65 432.6c-17.61 14.59-17.46 32.63-15.8 42.08 2.88 16.4 13.84 29.88 28.61 35.18 29.97 10.76 50.1 39.36 50.1 71.18v217.67c0 25.16 20.47 45.62 45.62 45.62H729.7c25.16 0 45.62-20.47 45.62-45.62V581.04c0-31.82 20.13-60.42 50.1-71.18 14.77-5.3 25.73-18.78 28.61-35.18 1.66-9.45 1.81-27.48-15.8-42.08L540.27 185.64c-8.35-6.92-18.59-10.38-28.82-10.38z" fill="#d81e06" p-id="3045"></path><path d="M511.33 736.09c-19.33 0-35-15.67-35-35V514.92c0-19.33 15.67-35 35-35s35 15.67 35 35v186.17c0 19.33-15.67 35-35 35z" fill="#d81e06" p-id="3046"></path></svg>