<?xml version="1.0" standalone="no"?><!DOCTYPE svg PUBLIC "-//W3C//DTD SVG 1.1//EN" "http://www.w3.org/Graphics/SVG/1.1/DTD/svg11.dtd"><svg t="1571989605695" class="icon" viewBox="0 0 1024 1024" version="1.1" xmlns="http://www.w3.org/2000/svg" p-id="9587" xmlns:xlink="http://www.w3.org/1999/xlink" width="200" height="200"><defs><style type="text/css"></style></defs><path d="M513.34 679.49a65.08 65.08 0 0 1-65-65v-72.93a65 65 0 1 1 130 0v72.93a65.08 65.08 0 0 1-65 65z" fill="#FF2D51" p-id="9588"></path><path d="M80.05 622.1a60 60 0 0 1-2.91-84.8L468 126.52a60 60 0 0 1 84.8-2.91 60 60 0 0 1 2.91 84.81L164.85 619.19a60 60 0 0 1-84.8 2.91z" fill="#BCBCBC" p-id="9589"></path><path d="M944.4 621.88a60 60 0 0 0 2.91-84.81L556.47 126.3a60 60 0 0 0-84.81-2.91 60 60 0 0 0-2.9 84.81L859.59 619a60 60 0 0 0 84.81 2.88z" fill="#BCBCBC" p-id="9590"></path><path d="M60.99 518.24m60 0l148.52 0q60 0 60 60l0 0q0 60-60 60l-148.52 0q-60 0-60-60l0 0q0-60 60-60Z" fill="#BCBCBC" p-id="9591"></path><path d="M694.93 518.02m60 0l148.52 0q60 0 60 60l0 0q0 60-60 60l-148.52 0q-60 0-60-60l0 0q0-60 60-60Z" fill="#BCBCBC" p-id="9592"></path><path d="M644.19 916.75H382.41a172.88 172.88 0 0 1-172.89-172.89V578.24a60 60 0 0 1 60-60 60 60 0 0 1 60 60v165.62a52.89 52.89 0 0 0 52.89 52.89h261.78a52.89 52.89 0 0 0 52.89-52.89V578.24a60 60 0 0 1 60-60 60 60 0 0 1 60 60v165.62a172.88 172.88 0 0 1-172.89 172.89z" fill="#BCBCBC" p-id="9593"></path></svg>