<?xml version="1.0" standalone="no"?><!DOCTYPE svg PUBLIC "-//W3C//DTD SVG 1.1//EN" "http://www.w3.org/Graphics/SVG/1.1/DTD/svg11.dtd"><svg t="1571989498615" class="icon" viewBox="0 0 1024 1024" version="1.1" xmlns="http://www.w3.org/2000/svg" p-id="8890" xmlns:xlink="http://www.w3.org/1999/xlink" width="200" height="200"><defs><style type="text/css"></style></defs><path d="M452 388.49666667m60 0l0 0q60 0 60 60l0 126.33q0 60-60 60l0 0q-60 0-60-60l0-126.33q0-60 60-60Z" fill="#6633FF" p-id="8891"></path><path d="M934.47 375.54666667a348.68 348.68 0 0 0-75-111.23c-32.13-32.13-69.72-57-111.24-75-37.16-16.12-52.94-25.32-140.31-27.18A41.88 41.88 0 0 1 568.08 130.66666667c-5.5-22-19.82-47.59-56.75-47.59-36.14 0-50.57 25.71-56.3 47.75a42 42 0 0 1-39.35 31.66c-86.27 2.5-103.61 10.81-139.93 26.86-41.4 18.3-79.11 42.86-111.24 75a349.75 349.75 0 0 0 0 495c32.13 32.12 70.53 55.2 111.24 75 32.27 15.69 53.69 25.24 140 27.17a42.33 42.33 0 0 1 39.82 31.52c8.21 30.41 28 47.32 55.8 47.32 27.74 0 47.91-17.86 56.05-48.13A41.82 41.82 0 0 1 607 861.46666667c89.55-1.81 105-11.11 141.23-27.2 41.37-18.37 79.11-42.86 111.24-75a350.31 350.31 0 0 0 75-383.74zM612 741.79666667H413.77c-124.65 0-229.93-101.94-231.75-226.58-1.87-128.38 102-233.42 230-233.42h198.21c124.65 0 229.92 101.95 231.75 226.58C843.85 636.75666667 740 741.79666667 612 741.79666667z" fill="#FF2D51" p-id="8892"></path></svg>