<?xml version="1.0" standalone="no"?><!DOCTYPE svg PUBLIC "-//W3C//DTD SVG 1.1//EN" "http://www.w3.org/Graphics/SVG/1.1/DTD/svg11.dtd"><svg t="1560247205003" class="icon" style="" viewBox="0 0 1024 1024" version="1.1" xmlns="http://www.w3.org/2000/svg" p-id="3448" xmlns:xlink="http://www.w3.org/1999/xlink" width="200" height="200"><defs><style type="text/css"></style></defs><path d="M511.33 953.33c-59.65 0-117.54-11.69-172.06-34.75-52.64-22.26-99.9-54.13-140.48-94.71-40.58-40.58-72.45-87.85-94.71-140.48-23.06-54.51-34.75-112.4-34.75-172.06 0-112.15 42.06-219.09 118.44-301.12 75.98-81.6 178.85-131.18 289.66-139.59 19.27-1.46 36.09 12.98 37.55 32.25 1.46 19.27-12.98 36.09-32.25 37.55-192.56 14.62-343.4 177.55-343.4 370.92 0 205.12 166.88 372 372 372 192.66 0 355.54-150.24 370.81-342.03 1.53-19.27 18.4-33.65 37.67-32.11 19.27 1.53 33.65 18.4 32.11 37.67-8.79 110.46-58.52 212.93-140.03 288.56-81.95 76.03-188.69 117.9-300.56 117.9zM918.97 142.39H667.12c-19.33 0-35-15.67-35-35s15.67-35 35-35h251.85c19.33 0 35 15.67 35 35s-15.67 35-35 35z" p-id="3449" fill="#E7344F"></path><path d="M953.97 107.39v241.4c0 19.33-15.67 35-35 35s-35-15.67-35-35v-241.4c0-19.33 15.67-35 35-35s35 15.67 35 35z" p-id="3450" fill="#E7344F"></path><path d="M483.91 490.72l366.63-366.63c13.67-13.67 35.83-13.67 49.5 0 13.67 13.67 13.67 35.83 0 49.5L533.41 540.22c-13.67 13.67-35.83 13.67-49.5 0-13.67-13.67-13.67-35.83 0-49.5z" p-id="3451" fill="#E7344F"></path></svg>