<?xml version="1.0" standalone="no"?><!DOCTYPE svg PUBLIC "-//W3C//DTD SVG 1.1//EN" "http://www.w3.org/Graphics/SVG/1.1/DTD/svg11.dtd"><svg t="1560326925480" class="icon" style="" viewBox="0 0 1024 1024" version="1.1" xmlns="http://www.w3.org/2000/svg" p-id="3155" xmlns:xlink="http://www.w3.org/1999/xlink" width="200" height="200"><defs><style type="text/css"></style></defs><path d="M722.05 920.52a85.36 85.36 0 0 1-39.81-9.9l-163.08-85.73a15.37 15.37 0 0 0-14.32 0l-163.08 85.73a85.37 85.37 0 0 1-123.88-90L249 639a15.4 15.4 0 0 0-4.43-13.62l-131.9-128.57A85.37 85.37 0 0 1 160 351.18l182.33-26.5a15.38 15.38 0 0 0 11.58-8.41l81.54-165.22a85.38 85.38 0 0 1 153.12 0l81.53 165.22a15.38 15.38 0 0 0 11.58 8.41L864 351.18a85.37 85.37 0 0 1 47.32 145.63L779.4 625.41A15.4 15.4 0 0 0 775 639l31.15 181.59a85.54 85.54 0 0 1-84.07 99.9zM512 753.12a85.32 85.32 0 0 1 39.73 9.81l163.08 85.73a15.38 15.38 0 0 0 22.32-16.21L706 650.86a85.35 85.35 0 0 1 24.56-75.57l131.91-128.61a15.38 15.38 0 0 0-8.47-26.23L671.62 394a85.36 85.36 0 0 1-64.29-46.7L525.79 182a15.38 15.38 0 0 0-27.58 0l-81.54 165.25A85.36 85.36 0 0 1 352.38 394l-182.33 26.5a15.38 15.38 0 0 0-8.52 26.23l131.93 128.56A85.35 85.35 0 0 1 318 650.86l-31.13 181.59a15.38 15.38 0 0 0 22.32 16.21l163.08-85.73a85.32 85.32 0 0 1 39.73-9.81z" fill="#d81e06" p-id="3156"></path></svg>